#N canvas 152 23 879 470 10;
#N canvas 1104 139 800 316 subpatch 1;
#X obj 28 54 inlet;
#X obj 107 53 inlet;
#X obj 174 48 inlet;
#X obj 236 51 inlet;
#X obj 295 50 inlet;
#X obj 359 49 inlet;
#X obj 419 47 inlet;
#X obj 482 47 inlet;
#X obj 547 47 inlet;
#X obj 614 46 inlet;
#X obj 29 98 outlet;
#X obj 102 101 outlet;
#X obj 169 101 outlet;
#X obj 232 104 outlet;
#X obj 297 103 outlet;
#X obj 361 99 outlet;
#X obj 422 98 outlet;
#X obj 486 95 outlet;
#X obj 555 91 outlet;
#X obj 625 93 outlet, f 49;
#X restore 138 219 pd subpatch;
#X obj 540 388 s pd-subpatch;
#X obj 528 48 ctlin;
#X msg 710 312 connect 1 0 10 0;
#X obj 546 119 + 10;
#X obj 644 81 < 2;
#X obj 582 79 > 1;
#X msg 554 269 \$1 \$2 0 \$3 0;
#X msg 394 332;
#X msg 590 129 disconnect;
#X msg 729 129 connect;
#X obj 505 206 pack s 0 0;
#X floatatom 361 115 5 0 0 0 - - -, f 5;
#X floatatom 420 114 5 0 0 0 - - -, f 5;
#X floatatom 476 114 5 0 0 0 - - -, f 5;
#X obj 373 233 print;
#X connect 2 0 11 1;
#X connect 2 0 12 0;
#X connect 2 1 4 0;
#X connect 2 1 13 0;
#X connect 2 2 5 0;
#X connect 2 2 6 0;
#X connect 2 2 14 0;
#X connect 3 0 1 0;
#X connect 4 0 11 2;
#X connect 5 0 9 0;
#X connect 6 0 10 0;
#X connect 7 0 1 0;
#X connect 7 0 8 0;
#X connect 9 0 11 0;
#X connect 10 0 11 0;
#X connect 11 0 7 0;
#X connect 11 0 15 0;
